<svg xmlns="http://www.w3.org/2000/svg" xmlns:xlink="http://www.w3.org/1999/xlink" width="223.819" height="45" viewBox="0 0 223.819 45">
  <defs>
    <style>
      .cls-1 {
        fill: url(#linear-gradient);
      }

      .cls-2 {
        stroke: #b7b7b7;
      }

      .cls-3 {
        fill: #fff;
      }

      .cls-4, .cls-5 {
        stroke: none;
      }

      .cls-6 {
        fill: none;
      }
    </style>
    <linearGradient id="linear-gradient" x1="0.5" x2="0.5" y2="1" gradientUnits="objectBoundingBox">
      <stop offset="0" stop-color="#fff"/>
      <stop offset="0.32" stop-color="#fff"/>
      <stop offset="0.562" stop-color="#d9d9d9"/>
      <stop offset="0.729" stop-color="#fff"/>
      <stop offset="1" stop-color="#fff"/>
    </linearGradient>
  </defs>
  <g id="Group_25" data-name="Group 25" transform="translate(-123 -24)">
    <g id="Path_8" data-name="Path 8" class="cls-1" transform="translate(179 50.494)">
      <path class="cls-4" d="M 151.6709442138672 16.80430030822754 C 150.8463745117188 16.80430030822754 149.9995269775391 16.6789665222168 149.1539154052734 16.43180084228516 L 148.6143341064453 16.27409172058105 L 148.6143341064453 15.7119255065918 L 148.6143341064453 11.76544666290283 L 148.6143341064453 10.99819660186768 L 149.3813781738281 11.01563453674316 L 150.1658172607422 11.03346252441406 C 151.2054748535156 11.03245544433594 151.7211456298828 10.84885597229004 151.9707794189453 10.69475936889648 C 152.3134918212891 10.4832010269165 152.5957641601563 10.10349178314209 152.8097381591797 9.566179275512695 L 153.3232727050781 8.221915245056152 L 146.5839385986328 -11.07138633728027 L 146.2355651855469 -12.0687198638916 L 147.2919769287109 -12.0687198638916 L 152.8963317871094 -12.0687198638916 L 153.4550628662109 -12.0687198638916 L 153.6149597167969 -11.53334522247314 L 156.5166473388672 -1.817740797996521 L 159.4036102294922 -11.5323657989502 L 159.56298828125 -12.0687198638916 L 160.1225280761719 -12.0687198638916 L 165.7088623046875 -12.0687198638916 L 166.7639770507813 -12.0687198638916 L 166.4171905517578 -11.07221984863281 L 158.5783081054688 11.45332145690918 L 158.5704650878906 11.47586345672607 L 158.5612182617188 11.49786281585693 L 158.1287078857422 12.5250301361084 L 158.1242523193359 12.53561305999756 L 158.1194763183594 12.54603004455566 C 157.4803924560547 13.94282150268555 156.6112060546875 15.01219654083252 155.5360870361328 15.72446727752686 C 154.4545288085938 16.44098854064941 153.1541137695313 16.80430030822754 151.6709442138672 16.80430030822754 Z M 105.117317199707 16.42588424682617 L 104.367317199707 16.42588424682617 L 99.15941619873047 16.42588424682617 L 98.40941619873047 16.42588424682617 L 98.40941619873047 15.67588424682617 L 98.40941619873047 -11.3187198638916 L 98.40941619873047 -12.0687198638916 L 99.15941619873047 -12.0687198638916 L 103.9888763427734 -12.0687198638916 L 104.6714630126953 -12.0687198638916 L 104.7355651855469 -11.38915729522705 L 104.7696914672852 -11.02743244171143 C 105.9817810058594 -11.95860290527344 107.4345474243164 -12.42913627624512 109.106689453125 -12.42913627624512 C 111.7470245361328 -12.42913627624512 113.8344573974609 -11.43088626861572 115.3110427856445 -9.462116241455078 C 116.7378540039063 -7.559699058532715 117.4613189697266 -4.934616088867188 117.4613189697266 -1.659782528877258 L 117.4613189697266 -1.389470100402832 C 117.4613189697266 1.76652991771698 116.722297668457 4.346675872802734 115.2648162841797 6.279300689697266 C 113.7582931518555 8.276926040649414 111.6985244750977 9.289800643920898 109.1427307128906 9.289800643920898 C 107.6012191772461 9.289800643920898 106.2536544799805 8.903544425964355 105.117317199707 8.138447761535645 L 105.117317199707 15.67588424682617 L 105.117317199707 16.42588424682617 Z M 105.117317199707 2.228024005889893 C 105.6366424560547 3.156866073608398 106.4853439331055 3.59102988243103 107.7731704711914 3.59102988243103 C 108.758544921875 3.59102988243103 109.4441299438477 3.219863176345825 109.9307556152344 2.422946691513062 C 110.4766311645508 1.528967380523682 110.75341796875 0.1189674213528633 110.75341796875 -1.767886757850647 C 110.75341796875 -3.425470113754272 110.4700469970703 -4.70026159286499 109.9111938476563 -5.556845188140869 C 109.4048767089844 -6.332886695861816 108.7140426635742 -6.694324016571045 107.7371292114258 -6.694324016571045 C 106.4524459838867 -6.694324016571045 105.615119934082 -6.277695655822754 105.117317199707 -5.386335849761963 L 105.117317199707 2.228024005889893 Z M 50.92987823486328 16.42588424682617 L 50.17987823486328 16.42588424682617 L 44.97198104858398 16.42588424682617 L 44.22198104858398 16.42588424682617 L 44.22198104858398 15.67588424682617 L 44.22198104858398 -11.3187198638916 L 44.22198104858398 -12.0687198638916 L 44.97198104858398 -12.0687198638916 L 49.80144119262695 -12.0687198638916 L 50.48402404785156 -12.0687198638916 L 50.54812622070313 -11.38915729522705 L 50.58225250244141 -11.02743244171143 C 51.79434585571289 -11.95860195159912 53.24711227416992 -12.42913627624512 54.91925430297852 -12.42913627624512 C 57.55956649780273 -12.42913627624512 59.64700317382813 -11.43088626861572 61.12360763549805 -9.462116241455078 C 62.55041885375977 -7.559699058532715 63.27387619018555 -4.934616088867188 63.27387619018555 -1.659782528877258 L 63.27387619018555 -1.389470100402832 C 63.27387619018555 1.76652991771698 62.53485870361328 4.346675872802734 61.07737731933594 6.279300689697266 C 59.57083511352539 8.276926040649414 57.51106643676758 9.289800643920898 54.95529556274414 9.289800643920898 C 53.41378021240234 9.289800643920898 52.06621551513672 8.903543472290039 50.92987823486328 8.138446807861328 L 50.92987823486328 15.67588424682617 L 50.92987823486328 16.42588424682617 Z M 50.92987823486328 2.228023529052734 C 51.4492073059082 3.15686559677124 52.29790496826172 3.59102988243103 53.58573150634766 3.59102988243103 C 54.57110595703125 3.59102988243103 55.25669097900391 3.219863176345825 55.74331665039063 2.422946691513062 C 56.28918838500977 1.528967380523682 56.56598281860352 0.1189674213528633 56.56598281860352 -1.767886757850647 C 56.56598281860352 -3.425470113754272 56.28260803222656 -4.70026159286499 55.72375106811523 -5.556845188140869 C 55.21744155883789 -6.332886695861816 54.52660751342773 -6.694324016571045 53.54969024658203 -6.694324016571045 C 52.26500701904297 -6.694324016571045 51.42768478393555 -6.277694702148438 50.92987823486328 -5.386335372924805 L 50.92987823486328 2.228023529052734 Z M 135.5787048339844 9.289800643920898 C 133.4896240234375 9.289800643920898 131.7252960205078 8.669071197509766 130.3347320556641 7.444842338562012 C 128.9163513183594 6.196134090423584 128.1971893310547 4.600133895874023 128.1971893310547 2.701175689697266 C 128.1971893310547 0.3898840844631195 129.0749053955078 -1.415345072746277 130.8059387207031 -2.66440749168396 C 132.4600067138672 -3.857949256896973 134.8408203125 -4.46951150894165 137.8822174072266 -4.482115745544434 L 139.5320434570313 -4.482115745544434 L 139.5320434570313 -4.849386692047119 C 139.5320434570313 -5.572386741638184 139.3640289306641 -6.120261669158936 139.0183563232422 -6.524282455444336 C 138.7069854736328 -6.888220310211182 138.1620635986328 -7.072761535644531 137.3987731933594 -7.072761535644531 C 136.7077178955078 -7.072761535644531 136.1761932373047 -6.920011520385742 135.8189544677734 -6.618720054626465 C 135.4905395507813 -6.34174108505249 135.3375854492188 -5.974220275878906 135.3375854492188 -5.462074279785156 L 135.3375854492188 -4.712074279785156 L 134.5875854492188 -4.712074279785156 L 129.3796691894531 -4.712074279785156 L 128.6296691894531 -4.712074279785156 L 128.6296691894531 -5.462074279785156 C 128.6296691894531 -6.747490882873535 129.0293731689453 -7.950553417205811 129.8176727294922 -9.03786563873291 C 130.5917053222656 -10.1055326461792 131.6907958984375 -10.9501781463623 133.0843811035156 -11.5483865737915 C 134.4458618164063 -12.13280296325684 135.9883728027344 -12.42913627624512 137.6690673828125 -12.42913627624512 C 140.2443542480469 -12.42913627624512 142.3333740234375 -11.75924110412598 143.8780670166016 -10.43803215026855 C 145.4572601318359 -9.087345123291016 146.2579650878906 -7.182803630828857 146.2579650878906 -4.777303218841553 L 146.2579650878906 3.674279928207397 C 146.2691040039063 5.388509273529053 146.5002899169922 6.68436336517334 146.945068359375 7.520967483520508 L 147.0328369140625 7.686050891876221 L 147.0328369140625 7.873029708862305 L 147.0328369140625 8.179384231567383 L 147.0328369140625 8.929384231567383 L 146.2828369140625 8.929384231567383 L 141.0208740234375 8.929384231567383 L 140.5626220703125 8.929384231567383 L 140.3535308837891 8.521634101867676 C 140.2480163574219 8.315899848937988 140.1535034179688 8.091616630554199 140.0703125 7.849802017211914 C 138.8258209228516 8.806323051452637 137.3205261230469 9.289800643920898 135.5787048339844 9.289800643920898 Z M 134.9051818847656 2.343095541000366 C 134.9094848632813 2.772603273391724 135.0505065917969 3.100906848907471 135.3479614257813 3.374884128570557 C 135.6638641357422 3.665842533111572 136.1106872558594 3.807279825210571 136.7139892578125 3.807279825210571 C 137.3650512695313 3.807279825210571 137.9461059570313 3.667654991149902 138.4903564453125 3.380404949188232 C 138.9489440917969 3.138367176055908 139.2913055419922 2.836613416671753 139.5320434570313 2.461317539215088 L 139.5320434570313 0.06332159042358398 L 138.3358306884766 0.06332159042358398 C 135.1334838867188 0.06332159042358398 134.9738006591797 1.510344862937927 134.9210662841797 2.073164939880371 L 134.9051818847656 2.343095541000366 Z M 74.72370910644531 9.289800643920898 C 71.67514801025391 9.289800643920898 69.14943695068359 8.33280086517334 67.21677398681641 6.44538402557373 C 65.27916717529297 4.553154945373535 64.29673004150391 2.014134168624878 64.29673004150391 -1.101136803627014 L 64.29673004150391 -1.605720043182373 C 64.29673004150391 -3.670199155807495 64.70446014404297 -5.5486159324646 65.50860595703125 -7.18882417678833 C 66.32649993896484 -8.857073783874512 67.50521087646484 -10.16265773773193 69.01197814941406 -11.06934547424316 C 70.51148223876953 -11.97163677215576 72.23915100097656 -12.42913627624512 74.14704132080078 -12.42913627624512 C 77.02149963378906 -12.42913627624512 79.32706451416016 -11.49788665771484 80.99968719482422 -9.661282539367676 C 82.65399932861328 -7.84478235244751 83.4927978515625 -5.267866134643555 83.4927978515625 -2.002157688140869 L 83.4927978515625 0.1242590919137001 L 83.4927978515625 0.8742591142654419 L 82.7427978515625 0.8742591142654419 L 71.25140380859375 0.8742591142654419 C 71.46738433837891 1.578872919082642 71.83168029785156 2.158653736114502 72.35354614257813 2.632404804229736 C 73.06412506103516 3.277467489242554 73.951416015625 3.59102988243103 75.06608581542969 3.59102988243103 C 76.84410858154297 3.59102988243103 78.18883514404297 2.972613334655762 79.17714691162109 1.700446605682373 L 79.72929382324219 0.989675760269165 L 80.32881164550781 1.660967469215393 L 82.88773345947266 4.526217460632324 L 83.28518676757813 4.971259117126465 L 82.94087982177734 5.458571434020996 C 82.08704376220703 6.66707181930542 80.92006683349609 7.620384216308594 79.47239685058594 8.292071342468262 C 78.04546356201172 8.954113006591797 76.44779205322266 9.289800643920898 74.72370910644531 9.289800643920898 Z M 71.29121398925781 -4.175782680511475 L 76.85682678222656 -4.175782680511475 C 76.7896728515625 -4.960452556610107 76.55083465576172 -5.572745323181152 76.14483642578125 -5.999053478240967 C 75.68771362304688 -6.479011535644531 75.02833557128906 -6.712345123291016 74.12904357910156 -6.712345123291016 C 73.30729675292969 -6.712345123291016 72.66531372070313 -6.449449062347412 72.16648101806641 -5.908636569976807 C 71.77499389648438 -5.484256744384766 71.48197937011719 -4.903513431549072 71.29121398925781 -4.175782680511475 Z M 30.66375350952148 9.289800643920898 C 28.36394119262695 9.289800643920898 26.56806564331055 8.601509094238281 25.32600212097168 7.244029998779297 C 24.10337829589844 5.907842636108398 23.4703369140625 3.963675737380981 23.44446182250977 1.465529918670654 L 23.44441986083984 1.461634039878845 L 23.44441986083984 1.457759141921997 L 23.44441986083984 -11.3187198638916 L 23.44441986083984 -12.0687198638916 L 24.19441986083984 -12.0687198638916 L 29.40231513977051 -12.0687198638916 L 30.15231513977051 -12.0687198638916 L 30.15231513977051 -11.3187198638916 L 30.15231513977051 1.27755069732666 C 30.15231513977051 2.09521746635437 30.31991958618164 2.693738222122192 30.65046119689941 3.056488275527954 C 30.96718978881836 3.404050827026367 31.4666690826416 3.573009014129639 32.17745971679688 3.573009014129639 C 33.57792663574219 3.573009014129639 34.52556991577148 3.150873899459839 35.06760787963867 2.283650398254395 L 35.06760787963867 -11.3187198638916 L 35.06760787963867 -12.0687198638916 L 35.81760787963867 -12.0687198638916 L 41.04352188110352 -12.0687198638916 L 41.79352188110352 -12.0687198638916 L 41.79352188110352 -11.3187198638916 L 41.79352188110352 8.179384231567383 L 41.79352188110352 8.929384231567383 L 41.04352188110352 8.929384231567383 L 36.14196014404297 8.929384231567383 L 35.44452285766602 8.929384231567383 L 35.39393997192383 8.233779907226563 L 35.36544036865234 7.841913223266602 C 34.09241104125977 8.803779602050781 32.5175666809082 9.289800643920898 30.66375350952148 9.289800643920898 Z M 11.49002361297607 9.289800643920898 C 9.37531566619873 9.289800643920898 7.417335987091064 8.895071983337402 5.670482158660889 8.116571426391602 C 3.890586137771606 7.323384284973145 2.508148670196533 6.212842464447021 1.561565279960632 4.815779685974121 C 0.6089819073677063 3.409904956817627 0.1259819269180298 1.764738202095032 0.1259819269180298 -0.07397007942199707 L 0.1259819269180298 -0.8239700794219971 L 0.8759819269180298 -0.8239700794219971 L 6.300127983093262 -0.8239700794219971 L 7.050127983093262 -0.8239700794219971 L 7.050127983093262 -0.07397007942199707 C 7.050127983093262 1.151446580886841 7.386648654937744 2.028738260269165 8.078919410705566 2.608029842376709 C 8.80123233795166 3.212467432022095 9.948898315429688 3.518946647644043 11.49002361297607 3.518946647644043 C 12.60804462432861 3.518946647644043 13.47244071960449 3.303259134292603 14.05918979644775 2.877842426300049 C 14.58552360534668 2.496258974075317 14.83064842224121 1.993488311767578 14.83064842224121 1.295571565628052 C 14.83064842224121 0.5047174096107483 14.58139896392822 -0.05265757814049721 14.04623222351074 -0.4584909081459045 C 13.39598178863525 -0.9515950679779053 12.16112804412842 -1.49463677406311 10.3760232925415 -2.072511672973633 C 8.467690467834473 -2.690282583236694 6.928211212158203 -3.311428308486938 5.800398826599121 -3.918720006942749 C 2.572898626327515 -5.662615776062012 0.9368985891342163 -8.073345184326172 0.9368985891342163 -11.08444881439209 C 0.9368985891342163 -12.65574073791504 1.387523651123047 -14.07928276062012 2.276294469833374 -15.31555366516113 C 3.15375280380249 -16.53605270385742 4.419398784637451 -17.49769973754883 6.0380859375 -18.17378234863281 C 7.618919372558594 -18.83401107788086 9.410773277282715 -19.16878318786621 11.36387729644775 -19.16878318786621 C 13.33885669708252 -19.16878318786621 15.13039875030518 -18.80286598205566 16.6887321472168 -18.08117866516113 C 18.27664947509766 -17.34578323364258 19.53060722351074 -16.2880744934082 20.41571044921875 -14.93747043609619 C 21.30427360534668 -13.58157444000244 21.75479507446289 -12.02453231811523 21.75479507446289 -10.30957412719727 L 21.75479507446289 -9.559574127197266 L 21.00479507446289 -9.559574127197266 L 15.59866905212402 -9.559574127197266 L 14.84866905212402 -9.559574127197266 L 14.84866905212402 -10.30957412719727 C 14.84866905212402 -11.2941780090332 14.56046104431152 -12.02669906616211 13.96760654449463 -12.54899120330811 C 13.35531520843506 -13.08838653564453 12.44898223876953 -13.36188697814941 11.27377319335938 -13.36188697814941 C 10.12650299072266 -13.36188697814941 9.242711067199707 -13.13161563873291 8.646940231323242 -12.67749118804932 C 8.098482131958008 -12.25938701629639 7.843023777008057 -11.74744892120361 7.843023777008057 -11.06642818450928 C 7.843023777008057 -10.68882465362549 7.942169666290283 -10.12026214599609 8.79952335357666 -9.544699668884277 C 9.592460632324219 -9.01236629486084 10.80106544494629 -8.498741149902344 12.39173221588135 -8.018095016479492 C 15.56862735748291 -7.062553405761719 17.93352317810059 -5.843616008758545 19.41981506347656 -4.39542818069458 C 20.96919059753418 -2.885782480239868 21.75479507446289 -0.983178436756134 21.75479507446289 1.259529948234558 C 21.75479507446289 3.768009185791016 20.78708648681641 5.76736307144165 18.87854385375977 7.20209264755249 C 17.03577423095703 8.587384223937988 14.54991912841797 9.289800643920898 11.49002361297607 9.289800643920898 Z M 126.1831893920898 8.929384231567383 L 125.4331893920898 8.929384231567383 L 120.207275390625 8.929384231567383 L 119.457275390625 8.929384231567383 L 119.457275390625 8.179384231567383 L 119.457275390625 -19.49999046325684 L 119.457275390625 -20.24999046325684 L 120.207275390625 -20.24999046325684 L 125.4331893920898 -20.24999046325684 L 126.1831893920898 -20.24999046325684 L 126.1831893920898 -19.49999046325684 L 126.1831893920898 8.179384231567383 L 126.1831893920898 8.929384231567383 Z M 91.65604400634766 8.929384231567383 L 90.90604400634766 8.929384231567383 L 85.69815063476563 8.929384231567383 L 84.94815063476563 8.929384231567383 L 84.94815063476563 8.179384231567383 L 84.94815063476563 -11.3187198638916 L 84.94815063476563 -12.0687198638916 L 85.69815063476563 -12.0687198638916 L 90.61772918701172 -12.0687198638916 L 91.32266998291016 -12.0687198638916 L 91.36629486083984 -11.36513710021973 L 91.38896179199219 -10.99961471557617 C 92.40878295898438 -11.94967842102051 93.65226745605469 -12.42913627624512 95.10481262207031 -12.42913627624512 C 95.75406646728516 -12.42913627624512 96.37435913085938 -12.33903217315674 96.94841766357422 -12.1613245010376 L 97.48464965820313 -11.99534511566162 L 97.4765625 -11.43407440185547 L 97.40447998046875 -6.424386978149414 L 97.39231872558594 -5.578261852264404 L 96.55377197265625 -5.691990852355957 C 95.88169097900391 -5.78313684463501 95.28504180908203 -5.829345226287842 94.78044128417969 -5.829345226287842 C 93.19011688232422 -5.829345226287842 92.16596221923828 -5.36277961730957 91.65604400634766 -4.404369354248047 L 91.65604400634766 8.179384231567383 L 91.65604400634766 8.929384231567383 Z"/>
      <path class="cls-5" d="M 151.6709442138672 16.05430793762207 C 154.3499908447266 16.05430793762207 156.2721862792969 14.7808723449707 157.4374847412109 12.23398113250732 L 157.8699798583984 11.20680713653564 L 165.7088470458984 -11.31871509552002 L 160.1225280761719 -11.31871509552002 L 156.5184478759766 0.8090245127677917 L 152.8963317871094 -11.31871509552002 L 147.2919921875 -11.31871509552002 L 154.1217498779297 8.233437538146973 L 153.509033203125 9.837264060974121 C 153.2327270507813 10.5340461730957 152.8512878417969 11.03261184692383 152.3647308349609 11.33295917510986 C 151.8782043457031 11.63330745697021 151.1423492431641 11.78345966339111 150.1572265625 11.78345966339111 L 149.3643341064453 11.76543712615967 L 149.3643341064453 15.71191596984863 C 150.1452178955078 15.94017696380615 150.9140930175781 16.05430793762207 151.6709442138672 16.05430793762207 M 104.3673095703125 15.67587184906006 L 104.3673095703125 6.485459327697754 C 105.5807037353516 7.855024337768555 107.1724853515625 8.539785385131836 109.1427230834961 8.539785385131836 C 111.4613571166992 8.539785385131836 113.3024597167969 7.635763645172119 114.6659851074219 5.827720165252686 C 116.0295257568359 4.019676685333252 116.711311340332 1.613937497138977 116.711311340332 -1.389475464820862 L 116.711311340332 -1.659779906272888 C 116.711311340332 -4.783323287963867 116.044548034668 -7.234084129333496 114.711051940918 -9.012105941772461 C 113.3775253295898 -10.79012775421143 111.5094223022461 -11.67912769317627 109.1066818237305 -11.67912769317627 C 107.0764007568359 -11.67912769317627 105.4305267333984 -10.92228031158447 104.1690902709961 -9.408562660217285 L 103.9888763427734 -11.31871509552002 L 99.15941619873047 -11.31871509552002 L 99.15941619873047 15.67587184906006 L 104.3673095703125 15.67587184906006 M 107.7371368408203 -7.444323539733887 C 108.9625244140625 -7.444323539733887 109.8965911865234 -6.951779842376709 110.5393142700195 -5.966649532318115 C 111.1820297241211 -4.981540679931641 111.50341796875 -3.581953763961792 111.50341796875 -1.76788854598999 C 111.50341796875 2.304720163345337 110.260009765625 4.341024398803711 107.7731781005859 4.341024398803711 C 106.1393356323242 4.341024398803711 105.0040512084961 3.698307037353516 104.3673095703125 2.412850618362427 L 104.3673095703125 -5.570214748382568 C 104.9800033569336 -6.81962776184082 106.1032867431641 -7.444323539733887 107.7371368408203 -7.444323539733887 M 50.17987442016602 15.67587184906006 L 50.17987442016602 6.485459327697754 C 51.39324569702148 7.855024337768555 52.98507308959961 8.539785385131836 54.95528793334961 8.539785385131836 C 57.27391815185547 8.539785385131836 59.11500549316406 7.635763645172119 60.47854995727539 5.827720165252686 C 61.84209442138672 4.019676685333252 62.52387619018555 1.613937497138977 62.52387619018555 -1.389475464820862 L 62.52387619018555 -1.659779906272888 C 62.52387619018555 -4.783323287963867 61.85711669921875 -7.234084129333496 60.52361679077148 -9.012105941772461 C 59.19009399414063 -10.79012775421143 57.32198333740234 -11.67912769317627 54.91924667358398 -11.67912769317627 C 52.88894271850586 -11.67912769317627 51.24309158325195 -10.92228031158447 49.98165893554688 -9.408562660217285 L 49.80144119262695 -11.31871509552002 L 44.97198486328125 -11.31871509552002 L 44.97198486328125 15.67587184906006 L 50.17987442016602 15.67587184906006 M 53.54970169067383 -7.444323539733887 C 54.77509307861328 -7.444323539733887 55.70913696289063 -6.951779842376709 56.35187530517578 -5.966649532318115 C 56.99461364746094 -4.981540679931641 57.31596374511719 -3.581953763961792 57.31596374511719 -1.76788854598999 C 57.31596374511719 2.304720163345337 56.07255172729492 4.341024398803711 53.58574676513672 4.341024398803711 C 51.95187759399414 4.341024398803711 50.81659317016602 3.698307037353516 50.17987442016602 2.412850618362427 L 50.17987442016602 -5.570214748382568 C 50.79257202148438 -6.81962776184082 51.91585540771484 -7.444323539733887 53.54970169067383 -7.444323539733887 M 135.5787048339844 8.539785385131836 C 137.5969848632813 8.539785385131836 139.2368469238281 7.837002754211426 140.498291015625 6.431394100189209 C 140.6063995361328 7.128198623657227 140.7805938720703 7.710850715637207 141.0208740234375 8.179372787475586 L 146.2828369140625 8.179372787475586 L 146.2828369140625 7.873046398162842 C 145.7782745361328 6.923959255218506 145.5199890136719 5.524372100830078 145.5079650878906 3.674285411834717 L 145.5079650878906 -4.777301788330078 C 145.5079650878906 -6.963779926300049 144.8021850585938 -8.660715103149414 143.3905792236328 -9.868083953857422 C 141.9789581298828 -11.07545375823975 140.0718078613281 -11.67912769317627 137.6690673828125 -11.67912769317627 C 136.0832824707031 -11.67912769317627 134.6536560058594 -11.40582370758057 133.3802185058594 -10.85919284820557 C 132.1067657470703 -10.31258392333984 131.1216430664063 -9.558736801147461 130.4248809814453 -8.597649574279785 C 129.7280731201172 -7.63654088973999 129.3796844482422 -6.591366767883301 129.3796844482422 -5.462084293365479 L 134.5876007080078 -5.462084293365479 C 134.5876007080078 -6.194910526275635 134.8368835449219 -6.771562576293945 135.3354339599609 -7.192040920257568 C 135.833984375 -7.612518787384033 136.5217742919922 -7.822758197784424 137.3987731933594 -7.822758197784424 C 138.3959045410156 -7.822758197784424 139.1257476806641 -7.552453994750977 139.5882720947266 -7.011845111846924 C 140.0507659912109 -6.471236228942871 140.2820434570313 -5.750410079956055 140.2820434570313 -4.849388599395752 L 140.2820434570313 -3.732127666473389 L 137.8853149414063 -3.732127666473389 C 134.9900207519531 -3.720105886459351 132.7765350341797 -3.161475419998169 131.2447814941406 -2.056214570999146 C 129.7130737304688 -0.9509755373001099 128.9472045898438 0.6348288059234619 128.9472045898438 2.701176643371582 C 128.9472045898438 4.383089542388916 129.5748901367188 5.776654720306396 130.8303375244141 6.88191556930542 C 132.0857391357422 7.987154960632324 133.6685333251953 8.539785385131836 135.5787048339844 8.539785385131836 M 138.3358306884766 -0.6866711378097534 L 140.2820434570313 -0.6866711378097534 L 140.2820434570313 2.665133237838745 C 139.9696807861328 3.241785287857056 139.4891357421875 3.701307058334351 138.8404235839844 4.043698310852051 C 138.1916656494141 4.38608980178833 137.4828796386719 4.557285308837891 136.7139892578125 4.557285308837891 C 135.9210968017578 4.557285308837891 135.2964019775391 4.347046375274658 134.8398590087891 3.926568031311035 C 134.3833618164063 3.506089687347412 134.1550903320313 2.971481084823608 134.1550903320313 2.322741985321045 L 134.1731109619141 2.016394138336182 C 134.34130859375 0.2143505811691284 135.7288818359375 -0.6866711378097534 138.3358306884766 -0.6866711378097534 M 74.72370147705078 8.539785385131836 C 76.34555053710938 8.539785385131836 77.82322692871094 8.230437278747559 79.15672302246094 7.61174201965332 C 80.49024200439453 6.993046283721924 81.54743957519531 6.131067752838135 82.32833099365234 5.025806903839111 L 79.76941680908203 2.160567998886108 C 78.64013671875 3.614198446273804 77.07237243652344 4.341024398803711 75.06609344482422 4.341024398803711 C 73.76861572265625 4.341024398803711 72.69641876220703 3.956589698791504 71.84944152832031 3.187720060348511 C 71.00248718261719 2.418850660324097 70.49491882324219 1.397698402404785 70.32672119140625 0.1242418810725212 L 82.74279022216797 0.1242418810725212 L 82.74279022216797 -2.002171277999878 C 82.74279022216797 -5.08967113494873 81.97692108154297 -7.474366664886475 80.44518280029297 -9.156279563903809 C 78.91345977783203 -10.83817100524902 76.81407165527344 -11.67912769317627 74.14704895019531 -11.67912769317627 C 72.36902618408203 -11.67912769317627 70.78624725341797 -11.2616491317749 69.39865875244141 -10.42671489715576 C 68.01109313964844 -9.591757774353027 66.93887329101563 -8.402410507202148 66.18202972412109 -6.858671188354492 C 65.42515563964844 -5.314910411834717 65.04674530029297 -3.563931941986084 65.04674530029297 -1.605714678764343 L 65.04674530029297 -1.101149439811707 C 65.04674530029297 1.818176627159119 65.94474792480469 4.154829025268555 67.74079132080078 5.908807277679443 C 69.53683471679688 7.662806987762451 71.86446380615234 8.539785385131836 74.72370147705078 8.539785385131836 M 74.1290283203125 -7.462345123291016 C 75.23429107666016 -7.462345123291016 76.08726501464844 -7.146997451782227 76.68794250488281 -6.516279697418213 C 77.28861236572266 -5.885562419891357 77.60095977783203 -4.993562698364258 77.62498474121094 -3.84023642539978 L 77.62498474121094 -3.425779819488525 L 70.38079071044922 -3.425779819488525 C 70.56098175048828 -4.723236560821533 70.97244262695313 -5.720366954803467 71.61518096923828 -6.417171001434326 C 72.25791931152344 -7.113953590393066 73.09585571289063 -7.462345123291016 74.1290283203125 -7.462345123291016 M 30.66374588012695 8.539785385131836 C 32.93433380126953 8.539785385131836 34.71235275268555 7.758915901184082 35.99781036376953 6.19713306427002 L 36.14196395874023 8.179372787475586 L 41.04352951049805 8.179372787475586 L 41.04352951049805 -11.31871509552002 L 35.81759262084961 -11.31871509552002 L 35.81759262084961 2.484915733337402 C 35.15685272216797 3.710307121276855 33.94346237182617 4.323002815246582 32.17746353149414 4.323002815246582 C 30.3273754119873 4.323002815246582 29.4023323059082 3.30785059928894 29.4023323059082 1.277546167373657 L 29.4023323059082 -11.31871509552002 L 24.19441986083984 -11.31871509552002 L 24.19441986083984 1.457763671875 C 24.21844100952148 3.776394128799438 24.78007125854492 5.536394119262695 25.87933158874512 6.737741947174072 C 26.97857093811035 7.939111232757568 28.5733757019043 8.539785385131836 30.66374588012695 8.539785385131836 M 11.49000644683838 8.539785385131836 C 14.39731121063232 8.539785385131836 16.70994186401367 7.894067764282227 18.42787551879883 6.60258960723877 C 20.14583206176758 5.31113338470459 21.00481033325195 3.53011155128479 21.00481033325195 1.259546279907227 C 21.00481033325195 -0.78277987241745 20.30200576782227 -2.488714694976807 18.89641952514648 -3.858258008956909 C 17.49081039428711 -5.227823257446289 15.25026702880859 -6.375127792358398 12.17478942871094 -7.300171375274658 C 10.50489807128906 -7.804736614227295 9.240463256835938 -8.345345497131348 8.381484985351563 -8.9219970703125 C 7.522506237030029 -9.498671531677246 7.09302806854248 -10.21347522735596 7.09302806854248 -11.06643199920654 C 7.09302806854248 -11.97947597503662 7.459441184997559 -12.71530151367188 8.192267417907715 -13.27393245697021 C 8.925114631652832 -13.83258438110352 9.952267646789551 -14.11188888549805 11.27376747131348 -14.11188888549805 C 12.643310546875 -14.11188888549805 13.70652770996094 -13.77851867675781 14.46337604522705 -13.1117582321167 C 15.22024536132813 -12.44499683380127 15.59868049621582 -11.51093196868896 15.59868049621582 -10.30958461761475 L 21.00481033325195 -10.30958461761475 C 21.00481033325195 -11.88336658477783 20.59933280944824 -13.28895378112793 19.78841972351074 -14.5263671875 C 18.97750663757324 -15.76375770568848 17.83922386169434 -16.72184562683105 16.37355041503906 -17.40062713623047 C 14.90787601470947 -18.07938766479492 13.2379846572876 -18.41877937316895 11.36387634277344 -18.41877937316895 C 9.501767158508301 -18.41877937316895 7.822854042053223 -18.10641098022461 6.327158451080322 -17.48171424865723 C 4.831462860107422 -16.85699653625488 3.684158563613892 -15.9890193939209 2.88526725769043 -14.87775802612305 C 2.08635425567627 -13.76649761199951 1.6868976354599 -12.50206279754639 1.6868976354599 -11.08445358276367 C 1.6868976354599 -8.357366561889648 3.17659330368042 -6.188910484313965 6.155962944030762 -4.579084396362305 C 7.249202251434326 -3.990410327911377 8.732897758483887 -3.392736434936523 10.60700607299805 -2.786040782928467 C 12.4811372756958 -2.179366827011108 13.77861499786377 -1.602714657783508 14.49941921234131 -1.056084156036377 C 15.22024536132813 -0.5094755291938782 15.58065891265869 0.2744157910346985 15.58065891265869 1.295567989349365 C 15.58065891265869 2.232633113861084 15.22024536132813 2.962459325790405 14.49941921234131 3.485068082809448 C 13.77861499786377 4.007655143737793 12.77546310424805 4.268959045410156 11.49000644683838 4.268959045410156 C 8.030093193054199 4.268959045410156 6.300137042999268 2.821307182312012 6.300137042999268 -0.07397551089525223 L 0.8759846687316895 -0.07397551089525223 C 0.8759846687316895 1.619937539100647 1.311462879180908 3.109633207321167 2.182462930679321 4.395089626312256 C 3.053441286087036 5.680546283721924 4.317875862121582 6.69269847869873 5.975767135620117 7.431524276733398 C 7.633636951446533 8.170372009277344 9.471723556518555 8.539785385131836 11.49000644683838 8.539785385131836 M 125.4332046508789 8.179372787475586 L 125.4332046508789 -19.49999809265137 L 120.2072677612305 -19.49999809265137 L 120.2072677612305 8.179372787475586 L 125.4332046508789 8.179372787475586 M 90.90605163574219 8.179372787475586 L 90.90605163574219 -4.579084396362305 C 91.51874542236328 -5.91258430480957 92.81020355224609 -6.579345226287842 94.78044128417969 -6.579345226287842 C 95.32106781005859 -6.579345226287842 95.94577026367188 -6.531301498413086 96.65457153320313 -6.435193061828613 L 96.72666168212891 -11.44486713409424 C 96.22209167480469 -11.60104084014893 95.68146514892578 -11.67912769317627 95.10481262207031 -11.67912769317627 C 93.25472259521484 -11.67912769317627 91.80706787109375 -10.7841272354126 90.76189422607422 -8.994084358215332 L 90.61772155761719 -11.31871509552002 L 85.69815826416016 -11.31871509552002 L 85.69815826416016 8.179372787475586 L 90.90605163574219 8.179372787475586 M 151.6709442138672 17.55430793762207 C 150.7751312255859 17.55430793762207 149.8574829101563 17.4188289642334 148.9434814453125 17.15167617797852 L 147.8643341064453 16.83621978759766 L 147.8643341064453 15.71191596984863 L 147.8643341064453 11.76543712615967 L 147.8643341064453 10.23095893859863 L 149.3984222412109 10.26582908630371 L 150.1733703613281 10.28344249725342 C 151.1372985839844 10.28153324127197 151.4910278320313 10.10951137542725 151.5767669677734 10.05659008026123 C 151.8279266357422 9.90156078338623 152.0058288574219 9.556831359863281 152.1116638183594 9.291858673095703 L 152.5248260498047 8.21038818359375 L 145.8759002685547 -10.82406234741211 L 145.1791381835938 -12.81871509552002 L 147.2919921875 -12.81871509552002 L 152.8963317871094 -12.81871509552002 L 154.0138092041016 -12.81871509552002 L 154.3335876464844 -11.74797534942627 L 156.5148468017578 -4.44456148147583 L 158.6846771240234 -11.74601936340332 L 159.0034637451172 -12.81871509552002 L 160.1225280761719 -12.81871509552002 L 165.7088470458984 -12.81871509552002 L 167.819091796875 -12.81871509552002 L 167.1255340576172 -10.82571506500244 L 159.2866516113281 11.69980716705322 L 159.2709655761719 11.74489402770996 L 159.25244140625 11.788893699646 L 158.8199462890625 12.81606769561768 L 158.81103515625 12.83722019195557 L 158.8014831542969 12.85806751251221 C 157.3957824707031 15.93037223815918 154.9300994873047 17.55430793762207 151.6709442138672 17.55430793762207 Z M 105.8673095703125 17.17587280273438 L 104.3673095703125 17.17587280273438 L 99.15941619873047 17.17587280273438 L 97.65941619873047 17.17587280273438 L 97.65941619873047 15.67587184906006 L 97.65941619873047 -4.785226345062256 L 96.45302581787109 -4.948801517486572 C 95.81415557861328 -5.035431861877441 95.25141906738281 -5.079345226287842 94.78044128417969 -5.079345226287842 C 93.21403503417969 -5.079345226287842 92.64617156982422 -4.574201583862305 92.40605163574219 -4.208225250244141 L 92.40605163574219 8.179372787475586 L 92.40605163574219 9.679372787475586 L 90.90605163574219 9.679372787475586 L 85.69815826416016 9.679372787475586 L 84.19815826416016 9.679372787475586 L 84.19815826416016 8.179372787475586 L 84.19815826416016 4.978811264038086 L 83.55342102050781 5.891350746154785 C 82.62298583984375 7.208285331726074 81.35611724853516 8.244894027709961 79.78802490234375 8.972415924072266 C 78.26150512695313 9.680676460266113 76.5576171875 10.03978538513184 74.72370147705078 10.03978538513184 C 71.47241973876953 10.03978538513184 68.77041625976563 9.010980606079102 66.69276428222656 6.981959342956543 C 65.18877410888672 5.51319408416748 64.21892547607422 3.69093132019043 63.79423141479492 1.543561697006226 C 63.45672607421875 3.571802854537964 62.74830627441406 5.309245109558105 61.6761589050293 6.730894088745117 C 60.02033233642578 8.92652416229248 57.75909423828125 10.03978538513184 54.95528793334961 10.03978538513184 C 53.75593566894531 10.03978538513184 52.66195297241211 9.826383590698242 51.67987442016602 9.402417182922363 L 51.67987442016602 15.67587184906006 L 51.67987442016602 17.17587280273438 L 50.17987442016602 17.17587280273438 L 44.97198486328125 17.17587280273438 L 43.47198486328125 17.17587280273438 L 43.47198486328125 15.67587184906006 L 43.47198486328125 -11.31871509552002 L 43.47198486328125 -12.81871509552002 L 44.97198486328125 -12.81871509552002 L 49.80144119262695 -12.81871509552002 L 51.16657257080078 -12.81871509552002 L 51.21356201171875 -12.32068157196045 C 52.30914306640625 -12.89146614074707 53.54763031005859 -13.17912769317627 54.91924667358398 -13.17912769317627 C 57.80841827392578 -13.17912769317627 60.09772491455078 -12.07995414733887 61.72361373901367 -9.912105560302734 C 62.80288314819336 -8.473065376281738 63.50596618652344 -6.66328239440918 63.82523727416992 -4.510206699371338 C 64.03945159912109 -5.578126430511475 64.37671661376953 -6.583873748779297 64.83518218994141 -7.518997192382813 C 65.71763610839844 -9.318931579589844 66.99281311035156 -10.72964954376221 68.62526702880859 -11.71197509765625 C 70.24320220947266 -12.68549728393555 72.10100555419922 -13.17912769317627 74.14704895019531 -13.17912769317627 C 77.24139404296875 -13.17912769317627 79.73350524902344 -12.16545391082764 81.55419921875 -10.16627979278564 C 83.10934448242188 -8.45866870880127 83.99619293212891 -6.15257740020752 84.19815826416016 -3.298154592514038 L 84.19815826416016 -11.31871509552002 L 84.19815826416016 -12.81871509552002 L 85.69815826416016 -12.81871509552002 L 90.61772155761719 -12.81871509552002 L 92.02757263183594 -12.81871509552002 L 92.05325317382813 -12.4046688079834 C 92.96074676513672 -12.9165506362915 93.98520660400391 -13.17912769317627 95.10481262207031 -13.17912769317627 C 95.82929229736328 -13.17912769317627 96.52417755126953 -13.07773685455322 97.17018127441406 -12.8778018951416 L 97.65941619873047 -12.7263708114624 L 97.65941619873047 -12.81871509552002 L 99.15941619873047 -12.81871509552002 L 103.9888763427734 -12.81871509552002 L 105.35400390625 -12.81871509552002 L 105.4010009765625 -12.32068157196045 C 106.49658203125 -12.89146614074707 107.7350692749023 -13.17912769317627 109.1066818237305 -13.17912769317627 C 111.9958572387695 -13.17912769317627 114.28515625 -12.07995414733887 115.9110488891602 -9.912105560302734 C 117.4374008178711 -7.876953601837158 118.211311340332 -5.100475311279297 118.211311340332 -1.659779906272888 L 118.211311340332 -1.389475464820862 C 118.211311340332 1.933154940605164 117.4214172363281 4.665241718292236 115.8635940551758 6.730894088745117 C 114.2077865600586 8.92650318145752 111.9465484619141 10.03978538513184 109.1427230834961 10.03978538513184 C 107.9433822631836 10.03978538513184 106.8493804931641 9.826374053955078 105.8673095703125 9.402408599853516 L 105.8673095703125 15.67587184906006 L 105.8673095703125 17.17587280273438 Z M 81.30156707763672 1.624241828918457 L 83.44711303710938 4.026633262634277 L 84.19815826416016 4.867598056793213 L 84.19815826416016 1.624241828918457 L 82.74279022216797 1.624241828918457 L 81.30156707763672 1.624241828918457 Z M 105.8673095703125 2.020599603652954 C 106.1590576171875 2.459699630737305 106.6610794067383 2.841024398803711 107.7731781005859 2.841024398803711 C 108.3831405639648 2.841024398803711 110.00341796875 2.841024398803711 110.00341796875 -1.76788854598999 C 110.00341796875 -3.277453660964966 109.7610473632813 -4.414366722106934 109.2830505371094 -5.147018909454346 C 108.9184417724609 -5.705888748168945 108.4561157226563 -5.944323539733887 107.7371368408203 -5.944323539733887 C 106.6360397338867 -5.944323539733887 106.1460189819336 -5.588919639587402 105.8673095703125 -5.177464485168457 L 105.8673095703125 2.020599603652954 Z M 72.44892883300781 1.624241828918457 C 72.56887817382813 1.787810564041138 72.70497894287109 1.938491463661194 72.85765838623047 2.077089786529541 C 73.42391967773438 2.591133117675781 74.14630889892578 2.841024398803711 75.06609344482422 2.841024398803711 C 76.42346954345703 2.841024398803711 77.4488525390625 2.452123403549194 78.25222015380859 1.624241828918457 L 72.44892883300781 1.624241828918457 Z M 51.67987442016602 2.020614147186279 C 51.97159957885742 2.45970892906189 52.47362899780273 2.841024398803711 53.58574676513672 2.841024398803711 C 54.19570159912109 2.841024398803711 55.81596374511719 2.841024398803711 55.81596374511719 -1.76788854598999 C 55.81596374511719 -3.27751898765564 55.57361602783203 -4.41441011428833 55.09561538696289 -5.146997451782227 C 54.73098373413086 -5.705866813659668 54.26865768432617 -5.944323539733887 53.54970169067383 -5.944323539733887 C 52.44860458374023 -5.944323539733887 51.95858764648438 -5.588919162750244 51.67987442016602 -5.177463531494141 L 51.67987442016602 2.020614147186279 Z M 72.37947845458984 -4.925779819488525 L 75.93875885009766 -4.925779819488525 C 75.85448455810547 -5.148750782012939 75.74200439453125 -5.334508895874023 75.60172271728516 -5.481801509857178 C 75.488525390625 -5.600649356842041 75.14407348632813 -5.962345123291016 74.1290283203125 -5.962345123291016 C 73.51165771484375 -5.962345123291016 73.07640075683594 -5.78895378112793 72.71774291992188 -5.40012788772583 C 72.59285736083984 -5.264733791351318 72.48004150390625 -5.106459140777588 72.37947845458984 -4.925779819488525 Z M 135.5787048339844 10.03978538513184 C 133.3017730712891 10.03978538513184 131.3706970214844 9.356111526489258 129.8391571044922 8.007785797119141 C 128.2519683837891 6.610459327697754 127.4472045898438 4.825046062469482 127.4472045898438 2.701176643371582 C 127.4472045898438 1.445068001747131 127.6906814575195 0.3040244877338409 128.1708831787109 -0.6902798414230347 C 128.6615905761719 -1.706323385238647 129.4004821777344 -2.575149536132813 130.3670654296875 -3.272605895996094 C 130.7196655273438 -3.527023792266846 131.1012420654297 -3.756868600845337 131.5114288330078 -3.962084293365479 L 129.3796844482422 -3.962084293365479 L 127.8796768188477 -3.962084293365479 L 127.8796768188477 -5.462084293365479 C 127.8796768188477 -6.908932209014893 128.3274230957031 -8.260106086730957 129.2104644775391 -9.478105545043945 C 130.0650024414063 -10.65684509277344 131.2688751220703 -11.58527946472168 132.78857421875 -12.23758411407471 C 134.2440338134766 -12.86234474182129 135.8860778808594 -13.17912769317627 137.6690673828125 -13.17912769317627 C 140.4281768798828 -13.17912769317627 142.6811981201172 -12.44864940643311 144.3655548095703 -11.00799751281738 C 146.1189270019531 -9.508323669433594 147.0079650878906 -7.411997318267822 147.0079650878906 -4.777301788330078 L 147.0079650878906 3.667823076248169 C 147.0212097167969 5.654551982879639 147.3411560058594 6.668299674987793 147.6072845458984 7.168915748596191 L 147.7828369140625 7.499111652374268 L 147.7828369140625 7.873046398162842 L 147.7828369140625 8.179372787475586 L 147.7828369140625 9.679372787475586 L 146.2828369140625 9.679372787475586 L 141.0208740234375 9.679372787475586 L 140.1044006347656 9.679372787475586 L 139.7433319091797 8.975337982177734 C 138.5367584228516 9.682801246643066 137.1435699462891 10.03978538513184 135.5787048339844 10.03978538513184 Z M 135.6555938720703 2.358442306518555 C 135.6623382568359 2.596826314926147 135.7377624511719 2.71428918838501 135.8560943603516 2.823263645172119 C 136.0246734619141 2.978546142578125 136.3133392333984 3.057285308837891 136.7139892578125 3.057285308837891 C 137.2400207519531 3.057285308837891 137.7065734863281 2.946024417877197 138.1402893066406 2.717111349105835 C 138.4085235595703 2.575538158416748 138.6206970214844 2.410577297210693 138.7820434570313 2.217349529266357 L 138.7820434570313 0.8133288621902466 L 138.3358306884766 0.8133288621902466 C 135.8403625488281 0.8133288621902466 135.7114105224609 1.685816168785095 135.6690063476563 2.130363464355469 L 135.6555938720703 2.358442306518555 Z M 137.3987731933594 -6.322758197784424 C 137.0486755371094 -6.322758197784424 136.5743103027344 -6.274649620056152 136.3025207519531 -6.04541015625 C 136.1985321044922 -5.957693099975586 136.0876007080078 -5.833084106445313 136.0876007080078 -5.462084293365479 L 136.0876007080078 -5.151115894317627 C 136.658935546875 -5.202482223510742 137.2562255859375 -5.22952127456665 137.8790893554688 -5.232105731964111 L 137.8822021484375 -5.232127666473389 L 137.8853149414063 -5.232127666473389 L 138.7605590820313 -5.232127666473389 C 138.71875 -5.576273441314697 138.6155700683594 -5.841400146484375 138.4484558105469 -6.036736488342285 C 138.2355499267578 -6.285583972930908 137.6994018554688 -6.322758197784424 137.3987731933594 -6.322758197784424 Z M 30.66374588012695 10.03978538513184 C 28.14474487304688 10.03978538513184 26.1627025604248 9.269502639770508 24.77268028259277 7.75032901763916 C 23.42155075073242 6.273720264434814 22.72235488891602 4.161828994750977 22.69450569152832 1.473307132720947 L 22.69441986083984 1.465524435043335 L 22.69441986083984 1.457763671875 L 22.69441986083984 -11.31871509552002 L 22.69441986083984 -12.81871509552002 L 24.19441986083984 -12.81871509552002 L 29.4023323059082 -12.81871509552002 L 30.9023323059082 -12.81871509552002 L 30.9023323059082 -11.31871509552002 L 30.9023323059082 1.277546167373657 C 30.9023323059082 1.884872317314148 31.00976753234863 2.337241888046265 31.20483207702637 2.551328897476196 C 31.4094409942627 2.775872230529785 31.84670257568359 2.823002815246582 32.17746353149414 2.823002815246582 C 33.44050216674805 2.823002815246582 34.01464462280273 2.43609881401062 34.31759262084961 2.050217151641846 L 34.31759262084961 -11.31871509552002 L 34.31759262084961 -12.81871509552002 L 35.81759262084961 -12.81871509552002 L 41.04352951049805 -12.81871509552002 L 42.54352951049805 -12.81871509552002 L 42.54352951049805 -11.31871509552002 L 42.54352951049805 8.179372787475586 L 42.54352951049805 9.679372787475586 L 41.04352951049805 9.679372787475586 L 36.14196395874023 9.679372787475586 L 34.74709320068359 9.679372787475586 L 34.70781326293945 9.139266014099121 C 33.53609848022461 9.738085746765137 32.18463516235352 10.03978538513184 30.66374588012695 10.03978538513184 Z M 11.49000644683838 10.03978538513184 C 9.269375801086426 10.03978538513184 7.208680152893066 9.623198509216309 5.365158557891846 8.801632881164551 C 3.45557165145874 7.950611591339111 1.966941118240356 6.751132965087891 0.9406585693359375 5.236481189727783 C -0.09758056700229645 3.704198360443115 -0.6240153312683105 1.917502760887146 -0.6240153312683105 -0.07397551089525223 L -0.6240153312683105 -1.573975563049316 L 0.8759846687316895 -1.573975563049316 L 6.300137042999268 -1.573975563049316 L 7.800137042999268 -1.573975563049316 L 7.800137042999268 -0.07397551089525223 C 7.800137042999268 1.396807074546814 8.372245788574219 1.875546216964722 8.560245513916016 2.032850503921509 C 9.135702133178711 2.514415740966797 10.14881038665771 2.768959283828735 11.49000644683838 2.768959283828735 C 12.44661521911621 2.768959283828735 13.16289806365967 2.601307153701782 13.61896324157715 2.270654916763306 C 13.94689750671387 2.032894134521484 14.08065891265869 1.750394105911255 14.08065891265869 1.295567989349365 C 14.08065891265869 0.6023288369178772 13.83417987823486 0.3219592571258545 13.59307193756104 0.1391331851482391 C 13.19220161437988 -0.1648668199777603 12.26863670349121 -0.6715189814567566 10.14505004882813 -1.358953714370728 C 8.166245460510254 -1.999540686607361 6.628788948059082 -2.620845079421997 5.44481086730957 -3.258388519287109 C 3.748919486999512 -4.1747145652771 2.445136785507202 -5.2863450050354 1.567810773849487 -6.563432216644287 C 0.6515063643455505 -7.897258281707764 0.1868976950645447 -9.41834545135498 0.1868976950645447 -11.08445358276367 C 0.1868976950645447 -12.81608390808105 0.6849846243858337 -14.38693237304688 1.667354226112366 -15.75334548950195 C 2.626984596252441 -17.08821487426758 4.000267028808594 -18.13541030883789 5.749049663543701 -18.86582374572754 C 7.421897888183594 -19.56451988220215 9.31098461151123 -19.91877937316895 11.36387634277344 -19.91877937316895 C 13.44848442077637 -19.91877937316895 15.34607124328613 -19.52949714660645 17.00389862060547 -18.76175880432129 C 18.72096252441406 -17.9665412902832 20.07989692687988 -16.81819343566895 21.04300689697266 -15.34856224060059 C 22.01298522949219 -13.86841011047363 22.50481033325195 -12.17306232452393 22.50481033325195 -10.30958461761475 L 22.50481033325195 -8.809584617614746 L 21.00481033325195 -8.809584617614746 L 15.59868049621582 -8.809584617614746 L 14.09868049621582 -8.809584617614746 L 14.09868049621582 -10.30958461761475 C 14.09868049621582 -11.31743240356445 13.74091911315918 -11.74914932250977 13.47183227539063 -11.98621463775635 C 13.00057125091553 -12.40138816833496 12.26102828979492 -12.61188888549805 11.27376747131348 -12.61188888549805 C 10.2945499420166 -12.61188888549805 9.563745498657227 -12.4332799911499 9.10163688659668 -12.08101940155029 C 8.740375518798828 -11.80562782287598 8.59302806854248 -11.51169300079346 8.59302806854248 -11.06643199920654 C 8.59302806854248 -10.91071510314941 8.59302806854248 -10.58664989471436 9.217571258544922 -10.16736698150635 C 9.948550224304199 -9.67664909362793 11.08948421478271 -9.195084571838379 12.60865879058838 -8.736062049865723 C 15.94772338867188 -7.731736183166504 18.34746360778809 -6.48743200302124 19.94322395324707 -4.932605743408203 C 21.64296340942383 -3.276432037353516 22.50481033325195 -1.193105936050415 22.50481033325195 1.259546279907227 C 22.50481033325195 4.016480922698975 21.43637657165527 6.217546463012695 19.32920265197754 7.801589488983154 C 17.3536376953125 9.286742210388184 14.71615886688232 10.03978538513184 11.49000644683838 10.03978538513184 Z M 126.9332046508789 9.679372787475586 L 125.4332046508789 9.679372787475586 L 120.2072677612305 9.679372787475586 L 118.7072677612305 9.679372787475586 L 118.7072677612305 8.179372787475586 L 118.7072677612305 -19.49999809265137 L 118.7072677612305 -20.99999809265137 L 120.2072677612305 -20.99999809265137 L 125.4332046508789 -20.99999809265137 L 126.9332046508789 -20.99999809265137 L 126.9332046508789 -19.49999809265137 L 126.9332046508789 8.179372787475586 L 126.9332046508789 9.679372787475586 Z"/>
    </g>
    <g id="Ellipse_5" data-name="Ellipse 5" class="cls-2" transform="translate(123 24)">
      <circle class="cls-4" cx="22.5" cy="22.5" r="22.5"/>
      <circle class="cls-6" cx="22.5" cy="22.5" r="22"/>
    </g>
    <path id="Path_32" data-name="Path 32" class="cls-3" d="M141.94,41.034l11.512,6.844L141.94,56.05Z" transform="translate(0.06 -2.034)"/>
  </g>
</svg>
